<svg xmlns="http://www.w3.org/2000/svg" width="16px" height="16px" fill="none" stroke="#000" stroke-width="1.334"><path d="m1.913,2.993l0,0c0,-0.691 0.619,-1.251 1.384,-1.251l0.629,0l0,0l3.020,0l5.664,0c0.367,0 0.719,0.131 0.979,0.366c0.259,0.234 0.405,0.553 0.405,0.885l0,3.129l0,0l0,1.877l0,0c0,0.691 -0.619,1.251 -1.384,1.251l-5.664,0l-3.946,3.182l0.925,-3.182l-0.629,0c-0.764,0 -1.384,-0.560 -1.384,-1.251l0,0l0,-1.877l0,0l0,-3.129z"/><path d="m-10.253,5.238l0,0c0,-0.096 0.076,-0.174 0.170,-0.174l0.077,0l0,0l0.372,0l0.698,0c0.045,0 0.088,0.018 0.120,0.051c0.032,0.032 0.050,0.077 0.050,0.123l0,0.437l0,0l0,0.262l0,0c0,0.096 -0.076,0.174 -0.170,0.174l-0.698,0l-0.486,0.444l0.114,-0.444l-0.077,0c-0.094,0 -0.170,-0.078 -0.170,-0.174l0,0l0,-0.262l0,0l0,-0.437z"/><line y2="5.5" x2="5.5" y1="5.5" x1="4.5"/><line y2="5.5" x2="8.5" y1="5.5" x1="7.5"/><line y2="5.5" x2="11.5" y1="5.5" x1="10.5"/></svg>
